<svg width="107" height="106" viewBox="0 0 107 106" fill="none" xmlns="http://www.w3.org/2000/svg">
<g clip-path="url(#clip0_15_2)">
<rect width="107" height="106" rx="5" fill="white"/>
<rect x="5.14999" y="55" width="46" height="46" fill="#109244"/>
<path d="M14.8545 68.1761V62.0909H43.525V68.1761H32.8375V97H25.542V68.1761H14.8545Z" fill="white"/>
<rect x="5.14999" y="5" width="46" height="46" fill="#0F75BF"/>
<path d="M31.5648 11.0909V46H24.1841V11.0909H31.5648Z" fill="white"/>
<rect x="56.15" y="5" width="46" height="46" fill="#109244"/>
<path d="M68.1841 46V11.0909H91.2977V17.1761H75.5648V25.4943H89.7636V31.5795H75.5648V46H68.1841Z" fill="white"/>
<rect x="56.15" y="55" width="46" height="46" fill="#109244"/>
<path d="M94.1235 72.8253L85.5368 73.3537C85.39 72.6198 85.0744 71.9593 84.5901 71.3722C84.1057 70.7704 83.4672 70.2933 82.6746 69.941C81.8967 69.5741 80.9646 69.3906 79.8784 69.3906C78.4253 69.3906 77.1997 69.6989 76.2016 70.3153C75.2035 70.9171 74.7044 71.7244 74.7044 72.7372C74.7044 73.5445 75.0273 74.227 75.6732 74.7848C76.319 75.3426 77.4272 75.7902 78.9977 76.1278L85.1185 77.3608C88.4064 78.036 90.8576 79.1222 92.4722 80.6193C94.0868 82.1165 94.894 84.0833 94.894 86.5199C94.894 88.7363 94.2409 90.6811 92.9345 92.3544C91.6429 94.0277 89.8668 95.334 87.6064 96.2734C85.3607 97.1982 82.77 97.6605 79.8344 97.6605C75.3576 97.6605 71.7908 96.7285 69.1341 94.8643C66.4921 92.9856 64.9435 90.4316 64.4885 87.2024L73.7136 86.718C73.9925 88.0831 74.6677 89.1252 75.7392 89.8445C76.8107 90.549 78.1831 90.9013 79.8564 90.9013C81.5003 90.9013 82.8214 90.5857 83.8195 89.9545C84.8323 89.3087 85.346 88.4794 85.3607 87.4666C85.346 86.6153 84.9864 85.9181 84.2818 85.375C83.5773 84.8172 82.4911 84.3916 81.0233 84.098L75.1668 82.9311C71.8642 82.2706 69.4056 81.1257 67.7911 79.4964C66.1912 77.8672 65.3912 75.7902 65.3912 73.2656C65.3912 71.0933 65.9783 69.2218 67.1526 67.6513C68.3415 66.0807 70.0074 64.8698 72.1504 64.0185C74.3081 63.1671 76.8327 62.7415 79.7243 62.7415C83.9956 62.7415 87.3569 63.6442 89.8081 65.4496C92.274 67.255 93.7125 69.7135 94.1235 72.8253Z" fill="white"/>
<mask id="path-10-outside-1_15_2" maskUnits="userSpaceOnUse" x="40.15" y="37" width="23" height="26" fill="black">
<rect fill="white" x="40.15" y="37" width="23" height="26"/>
<path d="M42.9222 57.1648V53.532L52.0309 39.1818H55.163V44.2102H53.3093L47.5671 53.2976V53.468H60.511V57.1648H42.9222ZM53.3945 61V56.0568L53.4797 54.4482V39.1818H57.805V61H53.3945Z"/>
</mask>
<path d="M42.9222 57.1648V53.532L52.0309 39.1818H55.163V44.2102H53.3093L47.5671 53.2976V53.468H60.511V57.1648H42.9222ZM53.3945 61V56.0568L53.4797 54.4482V39.1818H57.805V61H53.3945Z" fill="#0F75BF"/>
<path d="M42.9222 57.1648H40.9222V59.1648H42.9222V57.1648ZM42.9222 53.532L41.2336 52.4602L40.9222 52.9508V53.532H42.9222ZM52.0309 39.1818V37.1818H50.9315L50.3423 38.11L52.0309 39.1818ZM55.163 39.1818H57.163V37.1818H55.163V39.1818ZM55.163 44.2102V46.2102H57.163V44.2102H55.163ZM53.3093 44.2102V42.2102H52.2072L51.6185 43.1419L53.3093 44.2102ZM47.5671 53.2976L45.8763 52.2292L45.5671 52.7186V53.2976H47.5671ZM47.5671 53.468H45.5671V55.468H47.5671V53.468ZM60.511 53.468H62.511V51.468H60.511V53.468ZM60.511 57.1648V59.1648H62.511V57.1648H60.511ZM53.3945 61H51.3945V63H53.3945V61ZM53.3945 56.0568L51.3973 55.951L51.3945 56.0039V56.0568H53.3945ZM53.4797 54.4482L55.4769 54.554L55.4797 54.5011V54.4482H53.4797ZM53.4797 39.1818V37.1818H51.4797V39.1818H53.4797ZM57.805 39.1818H59.805V37.1818H57.805V39.1818ZM57.805 61V63H59.805V61H57.805ZM44.9222 57.1648V53.532H40.9222V57.1648H44.9222ZM44.6107 54.6038L53.7194 40.2536L50.3423 38.11L41.2336 52.4602L44.6107 54.6038ZM52.0309 41.1818H55.163V37.1818H52.0309V41.1818ZM53.163 39.1818V44.2102H57.163V39.1818H53.163ZM55.163 42.2102H53.3093V46.2102H55.163V42.2102ZM51.6185 43.1419L45.8763 52.2292L49.2578 54.3659L55 45.2786L51.6185 43.1419ZM45.5671 53.2976V53.468H49.5671V53.2976H45.5671ZM47.5671 55.468H60.511V51.468H47.5671V55.468ZM58.511 53.468V57.1648H62.511V53.468H58.511ZM60.511 55.1648H42.9222V59.1648H60.511V55.1648ZM55.3945 61V56.0568H51.3945V61H55.3945ZM55.3917 56.1626L55.4769 54.554L51.4825 54.3423L51.3973 55.951L55.3917 56.1626ZM55.4797 54.4482V39.1818H51.4797V54.4482H55.4797ZM53.4797 41.1818H57.805V37.1818H53.4797V41.1818ZM55.805 39.1818V61H59.805V39.1818H55.805ZM57.805 59H53.3945V63H57.805V59Z" fill="white" mask="url(#path-10-outside-1_15_2)"/>
</g>
<defs>
<clipPath id="clip0_15_2">
<rect width="107" height="106" rx="5" fill="white"/>
</clipPath>
</defs>
</svg>
